<svg xmlns:inkscape="http://www.inkscape.org/namespaces/inkscape" xmlns:sodipodi="http://sodipodi.sourceforge.net/DTD/sodipodi-0.dtd" xmlns="http://www.w3.org/2000/svg" xmlns:svg="http://www.w3.org/2000/svg" version="1.1" id="svg5" sodipodi:docname="drawing.svg" inkscape:version="1.1.2 (b8e25be833, 2022-02-05)" viewBox="75.24 130.44 80.61 18.99">
  <sodipodi:namedview id="namedview7" pagecolor="#ffffff" bordercolor="#666666" borderopacity="1.0" inkscape:pageshadow="2" inkscape:pageopacity="0.0" inkscape:pagecheckerboard="0" inkscape:document-units="mm" showgrid="false" inkscape:zoom="0.46324355" inkscape:cx="396.11993" inkscape:cy="560.1805" inkscape:window-width="1366" inkscape:window-height="706" inkscape:window-x="-8" inkscape:window-y="-8" inkscape:window-maximized="1" inkscape:current-layer="layer1"/>
  <defs id="defs2">
    <linearGradient id="SvgjsLinearGradient3602" gradientTransform="scale(0.96672281,1.0344227)" x1="9.845635" y1="4.7127737" x2="96.476465" y2="4.7127737" gradientUnits="userSpaceOnUse">
      <stop id="SvgjsStop3603" stop-color="#616161" offset="0"/>
      <stop id="SvgjsStop3604" stop-color="#e6e7e8" offset="0.5"/>
      <stop id="SvgjsStop3605" stop-color="#616161" offset="1"/>
    </linearGradient>
  </defs>
  <g inkscape:label="Layer 1" inkscape:groupmode="layer" id="layer1">
    <g id="g34" style="fill:#005e84;fill-opacity:1" transform="matrix(0.21190408,0,0,0.21190408,73.220726,129.405)">
      <path fill="url(#SvgjsLinearGradient3602)" d="m 63.163,5.283 c 1.626,0.171 3.202,0.587 4.796,0.926 1.42,0.301 2.788,0.76 4.155,1.215 1.193,0.397 2.358,0.883 3.509,1.4 0.858,0.386 1.701,0.802 2.525,1.244 0.855,0.459 1.704,0.939 2.525,1.467 0.79,0.509 1.585,1.01 2.345,1.56 1.167,0.844 2.287,1.751 3.364,2.709 0.077,0.069 0.211,0.106 0.19,0.253 -0.477,-0.14 -0.867,-0.448 -1.245,-0.74 -0.585,-0.451 -1.243,-0.761 -1.875,-1.122 -0.934,-0.534 -1.897,-1.026 -2.906,-1.388 -1.054,-0.378 -2.091,-0.806 -3.19,-1.068 C 76.255,11.476 75.161,11.176 74.06,10.91 73.816,10.828 73.572,10.747 73.328,10.665 73.224,10.579 73.11,10.519 72.969,10.53 72.962,10.514 72.95,10.51 72.934,10.518 72.539,10.361 72.149,10.19 71.725,10.121 71.714,10.105 71.7,10.1 71.682,10.108 71.568,10.036 71.444,9.998 71.309,9.993 71.266,9.988 71.222,9.983 71.179,9.978 70.993,9.933 70.806,9.888 70.62,9.843 70.608,9.826 70.593,9.822 70.574,9.83 70.172,9.594 69.703,9.586 69.268,9.462 68.493,9.24 67.707,9.036 66.89,9.022 L 66.86,9.009 c 0,0 -0.033,0.004 -0.033,0.004 C 66.775,8.992 66.724,8.96 66.67,8.952 65.686,8.793 64.705,8.613 63.717,8.485 62.684,8.352 61.649,8.224 60.605,8.208 58.301,8.057 55.997,8.085 53.693,8.221 53.672,8.222 53.652,8.239 53.631,8.248 53.307,8.245 52.983,8.239 52.667,8.324 52.622,8.326 52.576,8.329 52.531,8.331 52.197,8.298 51.869,8.368 51.542,8.406 50.784,8.495 50.019,8.547 49.275,8.733 l -0.03,-0.004 c 0,0 -0.027,0.014 -0.027,0.014 C 48.954,8.74 48.698,8.784 48.449,8.872 48.359,8.883 48.27,8.893 48.18,8.904 48.141,8.89 48.114,8.898 48.1,8.938 c 0,0 0.005,-0.002 0.005,-0.002 -0.484,0.068 -0.976,0.084 -1.45,0.216 L 46.622,9.15 c 0,0 -0.029,0.017 -0.029,0.017 C 46.402,9.186 46.21,9.2 46.034,9.29 45.99,9.296 45.947,9.302 45.903,9.308 c -0.322,0.08 -0.662,0.096 -0.961,0.263 -0.819,0.2 -1.655,0.347 -2.453,0.611 -1.457,0.482 -2.927,0.925 -4.355,1.505 -0.966,0.392 -1.925,0.806 -2.869,1.24 -0.904,0.415 -1.792,0.875 -2.668,1.356 -1.358,0.745 -2.685,1.54 -3.961,2.41 -1.106,0.753 -2.19,1.541 -3.233,2.387 -0.485,0.394 -0.963,0.809 -1.454,1.199 -0.485,0.385 -0.937,0.831 -1.399,1.253 -0.845,0.772 -1.644,1.591 -2.434,2.413 -0.406,0.422 -0.807,0.869 -1.188,1.325 -0.439,0.525 -0.889,1.046 -1.325,1.574 -0.627,0.759 -1.195,1.566 -1.775,2.363 -0.763,1.047 -1.476,2.13 -2.137,3.238 -0.791,1.326 -1.522,2.689 -2.192,4.086 -0.446,0.931 -0.794,1.905 -1.272,2.816 -0.299,0.57 -0.339,1.226 -0.709,1.805 0.304,-1.248 0.631,-2.443 1.019,-3.628 0.459,-1.398 0.998,-2.762 1.568,-4.113 0.54,-1.279 1.134,-2.538 1.828,-3.74 0.446,-0.772 0.878,-1.553 1.354,-2.31 0.489,-0.777 0.984,-1.548 1.508,-2.299 1.135,-1.627 2.368,-3.179 3.713,-4.638 0.696,-0.755 1.423,-1.482 2.152,-2.207 0.913,-0.91 1.883,-1.752 2.866,-2.575 0.486,-0.407 0.992,-0.807 1.504,-1.191 0.714,-0.537 1.453,-1.04 2.174,-1.566 0.683,-0.498 1.442,-0.889 2.154,-1.348 0.83,-0.534 1.699,-1.009 2.581,-1.436 0.779,-0.378 1.525,-0.832 2.36,-1.113 0.625,-0.21 1.203,-0.566 1.825,-0.804 1.822,-0.698 3.671,-1.323 5.561,-1.808 2.743,-0.704 5.528,-1.171 8.356,-1.372 0.347,-0.025 0.706,0.005 1.041,-0.129 2.071,0 4.143,0 6.214,0 0.477,0.119 0.963,0.129 1.451,0.134 0.022,0.01 0.044,0.012 0.067,0.005 0.78,0.115 1.56,0.225 2.349,0.269 z" id="path30" style="fill:#005e84;fill-opacity:1"/>
      <path fill="url(#SvgjsLinearGradient3602)" d="m 45.212,30.841 c -1.029,0.819 -1.928,1.766 -2.744,2.793 -0.945,1.19 -1.708,2.488 -2.288,3.895 -0.788,1.913 -1.05,3.903 -1,5.962 0.04,1.673 0.383,3.274 0.843,4.872 0.373,1.296 0.849,2.549 1.406,3.769 0.384,0.842 0.807,1.669 1.27,2.477 0.451,0.786 0.937,1.548 1.446,2.291 0.9,1.312 1.904,2.55 2.999,3.708 1.128,1.192 2.321,2.312 3.601,3.345 0.562,0.453 1.13,0.899 1.714,1.318 0.901,0.646 1.828,1.261 2.781,1.828 1.191,0.709 2.42,1.36 3.686,1.926 1.718,0.769 3.489,1.403 5.289,1.955 0.24,0.073 0.496,0.095 0.744,0.141 2.978,0.857 6.027,1.112 9.11,1.062 1.473,-0.024 2.943,0.003 4.384,0.352 0.41,0.099 0.815,0.244 1.201,0.415 0.352,0.156 0.672,0.401 0.701,0.825 0.029,0.419 -0.246,0.691 -0.561,0.93 -0.794,0.603 -1.708,0.903 -2.663,1.144 -2.322,0.586 -4.677,0.709 -7.054,0.584 -1.794,-0.094 -3.561,-0.382 -5.331,-0.679 -1.32,-0.222 -2.59,-0.61 -3.886,-0.913 -1.325,-0.31 -2.571,-0.847 -3.874,-1.213 -0.103,-0.029 -0.199,-0.117 -0.319,-0.052 0.019,-0.125 -0.059,-0.13 -0.155,-0.13 0.039,0.073 0.088,0.114 0.159,0.127 0.015,0.214 0.225,0.241 0.341,0.358 0.494,0.498 1.066,0.906 1.633,1.306 0.718,0.507 1.435,1.024 2.231,1.412 0.236,0.115 0.446,0.282 0.678,0.408 1.616,0.875 3.301,1.604 5.038,2.194 1.979,0.673 4.013,1.147 6.075,1.509 3.213,0.564 6.449,0.582 9.696,0.512 2.783,-0.06 5.514,-0.496 8.247,-0.958 0.794,-0.134 1.574,-0.324 2.359,-0.491 0.086,-0.018 0.169,-0.06 0.297,0.005 -0.357,0.154 -0.676,0.343 -1.021,0.43 -0.838,0.212 -1.61,0.618 -2.445,0.82 -1.448,0.35 -2.843,0.884 -4.318,1.154 -1.16,0.212 -2.296,0.578 -3.466,0.749 -2.455,0.358 -4.906,0.756 -7.39,0.892 -1.944,0.106 -3.887,0.104 -5.831,0.059 -2.442,-0.056 -4.853,-0.401 -7.263,-0.782 -1.388,-0.22 -2.737,-0.591 -4.106,-0.883 -1.331,-0.284 -2.603,-0.745 -3.887,-1.162 -1.382,-0.448 -2.726,-1.014 -4.057,-1.609 -0.89,-0.398 -1.762,-0.831 -2.63,-1.268 -0.983,-0.496 -1.932,-1.06 -2.917,-1.555 -1.028,-0.516 -1.959,-1.173 -2.878,-1.863 -0.559,-0.42 -1.108,-0.854 -1.619,-1.322 -0.747,-0.685 -1.473,-1.394 -2.161,-2.145 -0.495,-0.539 -0.979,-1.09 -1.446,-1.65 -0.681,-0.816 -1.332,-1.662 -1.932,-2.539 -0.284,-0.415 -0.576,-0.825 -0.856,-1.243 -0.335,-0.714 -0.867,-1.31 -1.21,-2.02 0,0 0,-0.003 0,-0.003 -0.033,-0.177 -0.171,-0.283 -0.28,-0.41 0,0 0,-0.003 0,-0.003 -0.225,-0.43 -0.451,-0.859 -0.676,-1.289 0.151,0.637 0.203,1.295 0.511,1.879 0.383,1.103 0.762,2.205 1.215,3.286 0.368,0.879 0.844,1.702 1.198,2.584 0.106,0.263 0.259,0.509 0.404,0.755 0.576,0.976 1.119,1.975 1.748,2.916 0.711,1.064 1.449,2.111 2.255,3.113 0.377,0.468 0.774,0.93 1.141,1.41 0.341,0.446 0.744,0.863 1.142,1.273 0.517,0.534 0.99,1.114 1.537,1.613 0.421,0.385 0.789,0.825 1.238,1.179 0.503,0.395 0.911,0.9 1.445,1.26 0.174,0.258 0.398,0.457 0.693,0.567 0.689,0.72 1.512,1.277 2.299,1.876 0.591,0.45 1.18,0.907 1.798,1.319 0.762,0.508 1.528,1.011 2.292,1.515 0.824,0.543 1.677,1.037 2.523,1.539 1.14,0.676 2.312,1.305 3.506,1.881 1.051,0.506 2.096,1.032 3.189,1.448 0.148,0.056 0.269,0.155 0.397,0.25 0.292,0.217 0.688,0.187 1.018,0.338 0.206,0.094 0.429,0.148 0.706,0.24 -0.173,0.103 -0.284,0.049 -0.396,0.027 -1.5,-0.292 -2.962,-0.722 -4.429,-1.144 -1.323,-0.381 -2.621,-0.829 -3.91,-1.299 -1.16,-0.424 -2.313,-0.875 -3.446,-1.378 -0.93,-0.413 -1.862,-0.828 -2.774,-1.276 -0.924,-0.454 -1.874,-0.867 -2.74,-1.437 -0.151,-0.1 -0.304,-0.212 -0.499,-0.218 -0.046,-0.018 -0.092,-0.036 -0.138,-0.054 0,0 0.003,0.004 0.003,0.004 -0.024,-0.025 -0.048,-0.049 -0.071,-0.074 0,0 0.003,0.002 0.003,0.002 -0.559,-0.408 -1.176,-0.724 -1.761,-1.089 -1.013,-0.631 -2.005,-1.297 -3.005,-1.949 0,0 0.002,0.002 0.002,0.002 C 39.944,84.476 39.886,84.449 39.822,84.43 39.157,83.942 38.479,83.47 37.83,82.961 37.21,82.475 36.62,81.95 36.015,81.445 34.232,79.955 32.602,78.308 31.068,76.568 30.608,76.047 30.183,75.489 29.738,74.954 28.915,73.967 28.19,72.91 27.48,71.848 27.095,71.272 26.713,70.682 26.367,70.074 25.822,69.118 25.268,68.163 24.805,67.17 24.346,66.186 23.887,65.199 23.482,64.186 22.898,62.724 22.456,61.219 21.947,59.734 21.878,59.533 21.846,59.32 21.784,59.061 c -0.499,0.703 -0.67,1.456 -0.739,2.24 -0.161,1.834 0.195,3.611 0.568,5.392 0.342,1.632 0.854,3.212 1.378,4.787 0.431,1.293 0.964,2.552 1.429,3.834 0.222,0.614 0.383,1.249 0.505,1.893 0.025,0.132 0.081,0.309 -0.067,0.374 -0.159,0.07 -0.265,-0.084 -0.36,-0.201 -0.792,-0.974 -1.371,-2.078 -1.977,-3.17 -0.915,-1.648 -1.693,-3.362 -2.462,-5.077 -0.664,-1.482 -1.201,-3.021 -1.794,-4.535 0.009,-0.041 -0.009,-0.063 -0.049,-0.07 0,0 -0.002,-0.002 -0.002,-0.002 -0.092,-0.705 -0.375,-1.349 -0.633,-2.001 -0.03,-0.098 -0.059,-0.196 -0.089,-0.294 -0.012,-0.039 -0.023,-0.079 -0.035,-0.118 -0.035,-0.317 -0.175,-0.602 -0.266,-0.902 -0.005,-0.045 -0.009,-0.089 -0.014,-0.134 -0.016,-0.101 -0.024,-0.203 -0.05,-0.301 -0.433,-1.624 -0.829,-3.255 -0.863,-4.949 0,-0.393 0,-0.787 0,-1.18 -0.035,0.238 -0.146,0.463 -0.109,0.704 -0.199,1.459 -0.34,2.923 -0.369,4.397 -0.067,0.117 -0.047,0.246 -0.048,0.37 -0.016,1.145 -0.053,2.29 -0.033,3.434 0.019,1.041 0.068,2.083 0.23,3.115 0.042,0.933 0.269,1.841 0.385,2.764 0.111,0.884 0.428,1.711 0.685,2.557 0.285,0.937 0.772,1.79 1.06,2.722 0.109,0.353 0.162,0.716 0.119,1.088 -0.031,0.272 -0.187,0.325 -0.413,0.221 -0.286,-0.131 -0.523,-0.328 -0.729,-0.565 -0.848,-0.974 -1.489,-2.082 -2.073,-3.226 -0.768,-1.503 -1.377,-3.071 -1.921,-4.666 -0.041,-0.121 -0.078,-0.24 -0.16,-0.34 -0.012,-0.338 -0.172,-0.637 -0.253,-0.957 -0.265,-1.043 -0.561,-2.078 -0.844,-3.115 -0.003,-0.024 -0.006,-0.047 -0.009,-0.071 -0.032,-0.476 -0.087,-0.947 -0.258,-1.397 -0.142,-0.873 -0.281,-1.746 -0.428,-2.618 -0.182,-1.079 -0.272,-2.166 -0.327,-3.258 -0.115,-2.254 -0.101,-4.509 0.069,-6.758 0.122,-1.617 0.49,-3.198 0.817,-4.786 0.25,-1.211 0.701,-2.35 1.067,-3.519 0.186,-0.596 0.539,-1.138 0.78,-1.719 0.475,-1.147 1.066,-2.231 1.657,-3.32 0.388,-0.715 0.84,-1.387 1.256,-2.081 0.469,-0.783 1.035,-1.509 1.565,-2.255 0.391,-0.552 0.821,-1.073 1.244,-1.595 0.422,-0.521 0.864,-1.034 1.314,-1.536 0.74,-0.825 1.499,-1.634 2.295,-2.398 0.449,-0.431 0.914,-0.86 1.389,-1.271 0.579,-0.502 1.163,-1.002 1.758,-1.482 0.809,-0.653 1.631,-1.298 2.5,-1.866 0.641,-0.419 1.28,-0.845 1.933,-1.248 0.869,-0.536 1.753,-1.05 2.657,-1.513 0.986,-0.505 1.986,-0.991 3.006,-1.434 1.106,-0.481 2.224,-0.939 3.356,-1.334 1.121,-0.392 2.221,-0.853 3.377,-1.164 0.677,-0.182 1.371,-0.393 2.017,-0.711 0.217,-0.106 0.488,-0.101 0.734,-0.147 0.627,-0.09 1.22,-0.309 1.822,-0.494 0.016,0.009 0.028,0.005 0.037,-0.01 0.172,-0.015 0.335,-0.059 0.489,-0.139 0.043,-0.006 0.086,-0.012 0.13,-0.018 0.331,-0.066 0.661,-0.137 0.979,-0.258 0.043,-0.005 0.086,-0.01 0.129,-0.016 0.121,0.011 0.239,0.006 0.348,-0.055 0.045,-0.004 0.09,-0.009 0.135,-0.013 0.501,-0.037 0.974,-0.215 1.468,-0.291 0.043,-0.007 0.076,-0.076 0.114,-0.116 0.141,0.002 0.283,0.051 0.421,-0.013 0.097,0.013 0.189,10e-4 0.273,-0.055 0,0 0.002,0 0.002,0 0.511,-0.067 1.02,-0.144 1.52,-0.275 0.023,-0.002 0.045,-0.004 0.068,-0.007 0.393,-0.043 0.785,-0.087 1.178,-0.13 0.023,0.011 0.044,0.009 0.065,-0.005 0.362,0.008 0.717,-0.036 1.069,-0.121 0.015,0.012 0.028,0.011 0.038,-0.006 0.429,-10e-4 0.853,-0.049 1.274,-0.132 l 0.02,0.013 c 0,0 0.021,-0.011 0.021,-0.011 0.746,-0.046 1.492,-0.093 2.239,-0.139 0.656,-0.005 1.312,-0.01 1.969,-0.015 0.806,0.045 1.611,0.09 2.417,0.135 0.023,0.001 0.045,0.003 0.068,0.004 0.344,0.129 0.733,0.045 1.076,0.207 -0.043,0.132 -0.173,0.131 -0.233,0.211 -1.092,-0.058 -2.15,0.196 -3.209,0.385 -1.809,0.323 -3.621,0.625 -5.398,1.115 -1.183,0.326 -2.369,0.642 -3.55,0.978 -1.305,0.372 -2.571,0.853 -3.839,1.319 -1.105,0.406 -2.191,0.873 -3.267,1.363 -0.994,0.453 -1.964,0.949 -2.924,1.461 -0.835,0.445 -1.654,0.927 -2.459,1.435 -0.737,0.465 -1.458,0.953 -2.17,1.451 -0.955,0.668 -1.856,1.409 -2.736,2.177 -0.812,0.71 -1.584,1.459 -2.321,2.24 -0.403,0.427 -0.79,0.88 -1.184,1.32 -0.418,0.467 -0.832,0.944 -1.226,1.425 -0.433,0.529 -0.874,1.059 -1.297,1.599 -0.529,0.676 -1.051,1.362 -1.553,2.055 -0.542,0.749 -1.062,1.52 -1.547,2.312 -0.467,0.763 -0.924,1.535 -1.316,2.333 -0.653,1.327 -1.232,2.694 -1.42,4.184 -0.069,0.548 -0.113,1.104 0.11,1.634 0.087,0.206 0.157,0.449 0.427,0.49 0.277,0.043 0.433,-0.159 0.539,-0.357 0.39,-0.726 0.857,-1.41 1.158,-2.184 0.078,-0.201 0.194,-0.389 0.304,-0.576 0.499,-0.849 0.914,-1.743 1.399,-2.601 0.422,-0.745 0.844,-1.493 1.287,-2.225 0.598,-0.987 1.244,-1.949 1.928,-2.879 1.258,-1.71 2.635,-3.323 4.224,-4.737 0.827,-0.736 1.692,-1.423 2.62,-2.044 0.91,-0.609 1.856,-1.143 2.829,-1.622 0.778,-0.384 1.527,-0.836 2.357,-1.116 0.346,-0.117 0.669,-0.301 1.003,-0.454 1.034,-0.472 2.106,-0.859 3.182,-1.21 2.131,-0.696 4.308,-1.218 6.564,-1.313 0.126,-0.005 0.252,-0.001 0.423,-0.001 -0.115,0.171 -0.279,0.206 -0.414,0.242 -0.674,0.179 -1.249,0.581 -1.896,0.814 -0.823,0.297 -1.563,0.762 -2.357,1.119 -0.823,0.369 -1.598,0.846 -2.386,1.291 -0.858,0.484 -1.73,0.951 -2.553,1.49 -0.689,0.451 -1.391,0.883 -2.055,1.374 -0.626,0.463 -1.263,0.912 -1.875,1.393 -0.639,0.502 -1.254,1.031 -1.864,1.568 -0.447,0.393 -0.862,0.82 -1.283,1.233 -0.509,0.499 -0.976,1.049 -1.423,1.617 -0.506,0.643 -0.948,1.323 -1.41,1.992 -0.32,0.463 -0.541,0.98 -0.838,1.456 -0.469,0.749 -0.832,1.561 -1.168,2.37 -0.928,2.235 -1.623,4.539 -1.715,6.983 -0.023,0.622 0.018,1.243 0.197,1.845 0.079,0.265 0.181,0.596 0.47,0.624 0.279,0.027 0.426,-0.296 0.528,-0.527 0.325,-0.733 0.64,-1.473 0.915,-2.227 0.454,-1.24 0.98,-2.45 1.527,-3.649 0.442,-0.968 0.928,-1.919 1.453,-2.85 1.18,-2.09 2.564,-4.017 4.363,-5.617 0.769,-0.684 1.573,-1.337 2.415,-1.928 1.303,-0.917 2.649,-1.771 4.095,-2.458 1.239,-0.588 2.512,-1.075 3.85,-1.371 0.693,-0.153 1.408,-0.156 2.126,-0.126 -0.757,0.321 -1.476,0.705 -2.206,1.065 -0.923,0.455 -1.811,0.974 -2.665,1.56 -0.776,0.53 -1.549,1.057 -2.253,1.681 z" id="path32" style="fill:#005e84;fill-opacity:1"/>
    </g>
    <path d="m 99.004698,135.007 c 0.69642,0 1.261002,0.56463 1.261002,1.261 v 9.30019 c 0,0.69643 -0.564632,1.26101 -1.261002,1.26101 -0.69638,0 -1.26101,-0.56463 -1.26101,-1.26101 V 136.268 c 0,-0.69642 0.56463,-1.261 1.26101,-1.261 z m -1.16488,-2.51282 c -0.0315,-0.0757 -0.0552,-0.15607 -0.0709,-0.23647 -0.0173,-0.0804 -0.0252,-0.16394 -0.0252,-0.2459 0,-0.082 0.008,-0.16552 0.0252,-0.24591 0.0158,-0.0804 0.0394,-0.16078 0.0709,-0.23644 0.0315,-0.0757 0.0709,-0.14975 0.11664,-0.21754 0.0457,-0.0693 0.0977,-0.13398 0.15605,-0.1923 0.0583,-0.0583 0.12294,-0.11033 0.1923,-0.15605 0.0678,-0.0457 0.14187,-0.0851 0.21753,-0.11664 0.0757,-0.0315 0.15605,-0.0552 0.23644,-0.0709 0.40984,-0.0836 0.84492,0.052 1.13812,0.34364 0.0567,0.0583 0.110342,0.12294 0.156062,0.19229 0.0457,0.0678 0.0851,0.14188 0.11663,0.21754 0.0315,0.0757 0.0552,0.15605 0.0709,0.23644 0.0173,0.0804 0.0252,0.16395 0.0252,0.24591 0,0.082 -0.008,0.16551 -0.0252,0.24591 -0.0158,0.0804 -0.0394,0.16078 -0.0709,0.23644 -0.0315,0.0757 -0.0709,0.14975 -0.11663,0.21753 -0.0457,0.0694 -0.0993,0.13398 -0.156062,0.1923 -0.0583,0.0583 -0.12294,0.11034 -0.19229,0.15605 -0.0678,0.0457 -0.14188,0.0851 -0.21754,0.11664 -0.0757,0.0315 -0.15605,0.0552 -0.23644,0.0709 -0.0804,0.0173 -0.16395,0.0252 -0.24591,0.0252 -0.082,0 -0.16552,-0.008 -0.24591,-0.0252 -0.0804,-0.0158 -0.16078,-0.0394 -0.23644,-0.0709 -0.0757,-0.0315 -0.14975,-0.0709 -0.21753,-0.11664 -0.0694,-0.0457 -0.13398,-0.0977 -0.1923,-0.15605 -0.0583,-0.0583 -0.11034,-0.12294 -0.15605,-0.19229 -0.0457,-0.0678 -0.0851,-0.14188 -0.11664,-0.21754 z m 3.778422,9.22118 c -0.49244,-0.49244 -0.49246,-1.29098 -1.8e-4,-1.78327 l 6.65874,-6.65874 h -5.76697 c -0.69642,0 -1.261,-0.56463 -1.261,-1.261 0,-0.69638 0.56463,-1.26101 1.261,-1.26101 h 8.81153 c 0.51009,0 0.96975,0.30721 1.16505,0.77837 0.19529,0.47115 0.0875,1.01357 -0.2732,1.37424 l -8.81152,8.81152 c -0.24623,0.24623 -0.56904,0.36932 -0.89172,0.36932 -0.32283,0 -0.64549,-0.1231 -0.89172,-0.36932 z m 9.70306,2.59206 c 0.69643,0 1.26118,0.5646 1.26118,1.261 0,0.6964 -0.56463,1.26101 -1.261,1.26101 h -8.81153 c -0.51009,0 -0.96975,-0.30722 -1.16505,-0.77837 -0.19529,-0.47115 -0.0875,-1.01357 0.2732,-1.37424 l 8.81152,-8.81152 c 0.49276,-0.4926 1.29098,-0.49244 1.78344,0 0.49245,0.49243 0.49243,1.29086 0,1.78332 l -6.65875,6.65874 h 5.76697 z m 12.76795,-9.30042 c 0.69643,0 1.26101,0.56463 1.26101,1.261 v 9.30019 c 0,0.69643 -0.56463,1.26101 -1.26101,1.26101 -0.63572,0 -1.15999,-0.47069 -1.24699,-1.08242 -0.96298,0.6808 -2.1367,1.08242 -3.4031,1.08242 -3.25955,0 -5.9111,-2.65156 -5.9111,-5.9111 0,-3.25955 2.65155,-5.9111 5.9111,-5.9111 1.2664,0 2.44001,0.40164 3.4031,1.08242 0.087,-0.61178 0.61127,-1.08242 1.24699,-1.08242 z m -4.65009,9.30019 c 1.86871,0 3.38909,-1.52033 3.38909,-3.38909 0,-1.86877 -1.52032,-3.38909 -3.38909,-3.38909 -1.86877,0 -3.38909,1.52032 -3.38909,3.38909 0,1.86876 1.52032,3.38909 3.38909,3.38909 z m 12.7846,-9.30019 c 0.69642,0 1.261,0.56463 1.261,1.261 0,0.69638 -0.56462,1.26101 -1.261,1.26101 -1.86871,0 -3.38909,1.52032 -3.38909,3.38909 v 4.65009 c 0,0.69643 -0.56462,1.26101 -1.261,1.26101 -0.69638,0 -1.26101,-0.56463 -1.26101,-1.26101 V 136.268 c 0,-0.69642 0.56463,-1.261 1.26101,-1.261 0.63573,0 1.15999,0.47084 1.24699,1.08242 0.96298,-0.6808 2.1367,-1.08242 3.4031,-1.08242 z m 9.37025,8.30746 c 0.49243,-0.49243 1.29098,-0.49252 1.78343,7e-5 0.4926,0.49244 0.4926,1.29087 0,1.78332 -1.11647,1.11647 -2.60079,1.73124 -4.17992,1.73124 -3.25954,0 -5.91109,-2.65155 -5.91109,-5.9111 0,-3.25954 2.65155,-5.91109 5.91109,-5.91109 1.57902,0 3.0634,0.61476 4.17969,1.73141 0.4926,0.49243 0.4926,1.29086 0,1.78332 -0.49243,0.49243 -1.29086,0.49243 -1.78332,0 -0.63997,-0.64015 -1.49115,-0.99261 -2.39637,-0.99261 -1.8687,0 -3.38909,1.52032 -3.38909,3.38909 0,1.86876 1.52033,3.38909 3.38909,3.38909 0.90528,0 1.75634,-0.35246 2.39637,-0.99261 z m 8.34352,-8.30746 c 3.25955,0 5.9111,2.65155 5.9111,5.9111 0,3.25954 -2.65155,5.9111 -5.9111,5.9111 -3.25954,0 -5.91109,-2.65156 -5.91109,-5.9111 0,-3.25955 2.65155,-5.9111 5.91109,-5.9111 z m 0,9.30019 c 1.86871,0 3.38909,-1.52033 3.38909,-3.38909 0,-1.86877 -1.52032,-3.38909 -3.38909,-3.38909 -1.86876,0 -3.38909,1.52032 -3.38909,3.38909 0,1.86876 1.52033,3.38909 3.38909,3.38909 z" id="path1118" style="fill:#005e8b;fill-opacity:1;stroke-width:0.574228"/>
  </g>
</svg>