<svg xmlns="http://www.w3.org/2000/svg" width="305" height="90.24063971875671" viewBox="0 0 305 90.24063971875671" class="css-1j8o68f">
<defs id="SvgjsDefs2447"></defs><g id="SvgjsG2448" featurekey="symbolFeature-0" transform="matrix(1.0051083964485168,0,0,1.0051083964485168,-7.755416467514625,-5.135099004501422)" fill="#10377a"><g xmlns="http://www.w3.org/2000/svg"><path fill-rule="evenodd" clip-rule="evenodd" d="M7.766,28.883C15.502,14.372,30.671,5.109,47.393,5.109   c24.79,0,44.891,20.104,44.891,44.891c0,24.789-20.104,44.891-44.891,44.891c-16.704,0-31.883-9.247-39.626-23.773v-3.683   c6.905,15.68,22.429,25.845,39.626,25.845c23.9,0,43.281-19.381,43.281-43.28c0-23.9-19.381-43.281-43.281-43.281   c-17.22,0-32.73,10.188-39.626,25.846V28.883L7.766,28.883z"></path><path fill-rule="evenodd" clip-rule="evenodd" d="M69.554,37.344C64.785,17.632,41.086,7.146,22.732,17.86   c-1.508,0.88-3.71,2.352-8.072,7.018c3.64-4.594,6.328-6.429,7.775-7.537c6.919-5.296,15.571-8.442,24.958-8.442   c11.35,0,21.625,4.6,29.063,12.038C83.893,28.375,88.494,38.65,88.494,50c0,7.999-2.177,15.534-6.239,21.78   c-1.274,1.96-4.026,4.055-8.043,4.055c-5.46,0-9.887-4.398-9.887-9.824c0-2.556,0.982-4.884,2.592-6.631   C71.903,51.684,70.721,42.172,69.554,37.344L69.554,37.344z"></path><path fill-rule="evenodd" clip-rule="evenodd" d="M37.551,26.809C15.94,20.153,8.691,37.974,7.716,42.632   c0.55-4.334,1.541-6.54,2.03-7.803c2.337-6.042,6.566-11.376,12.437-14.981c7.099-4.359,15.255-5.365,22.702-3.467   c7.447,1.898,14.186,6.699,18.452,13.953c1.988,3.381,3.682,8.127,3.975,10.571c0.118,0.986,0.23,1.635,0.23,2.451   c0,5.041-3.896,9.127-8.702,9.127c-4.806,0-8.702-4.086-8.702-9.127c-0.074-0.222-0.106-0.304-0.088-0.394   C48.824,35.455,42.018,28.185,37.551,26.809L37.551,26.809z"></path><path fill-rule="evenodd" clip-rule="evenodd" d="M25.252,43.317c-9.604-7.23-16.367,2.075-16.455,5.756   c-0.065-2.788,0.217-4.51,0.405-5.378c0.93-4.29,3.209-8.306,6.778-11.339c4.316-3.668,9.698-5.168,14.92-4.725   c5.946,0.505,10.357,4.431,10.357,9.509s-4.116,9.194-9.194,9.194C29.363,46.335,26.934,45.171,25.252,43.317L25.252,43.317z"></path></g></g><g id="SvgjsG2449" featurekey="nameFeature-0" transform="matrix(1.7599434549417308,0,0,1.7599434549417308,101.05772706374961,0.21823932609977703)" fill="#10377a"><path d="M9 39.96 c-0.69332 0.10668 -1.32 0.18668 -1.88 0.24 s-1.0667 0.08 -1.52 0.08 s-0.96 -0.02668 -1.52 -0.08 s-1.1733 -0.13332 -1.84 -0.24 l0 -20.64 c0.58668 -0.13332 1.1667 -0.22664 1.74 -0.27996 s1.1266 -0.08 1.66 -0.08 c0.50668 0 1.0534 0.02668 1.64 0.08 s1.16 0.14664 1.72 0.27996 l0 20.64 z M32.4 36.84 c0 0.98668 -0.12 2.04 -0.36 3.16 l-19.28 0 l-0.72 -1.08 l11.04 -21.44 l-9.8 0 c-0.13332 -0.58668 -0.22 -1.1334 -0.26 -1.64 s-0.06 -0.98668 -0.06 -1.44 s0.02 -0.94664 0.06 -1.48 s0.12668 -1.0933 0.26 -1.68 l19.48 0 l0.6 1.16 l-10.96 21.4 l9.64 0 c0.24 1.12 0.36 2.1333 0.36 3.04 z M34.92 33.24 c0 -1.3067 0.27992 -2.3867 0.83992 -3.24 s1.28 -1.5333 2.16 -2.04 s1.8533 -0.86 2.92 -1.06 s2.1067 -0.3 3.12 -0.3 l2.44 0 c-0.02668 -0.48 -0.16 -0.88 -0.4 -1.2 s-0.54668 -0.56668 -0.92 -0.74 s-0.78664 -0.29332 -1.24 -0.36 s-0.92 -0.1 -1.4 -0.1 c-0.64 0 -1.3867 0.07332 -2.24 0.22 s-1.7333 0.38 -2.64 0.7 c-0.24 -0.45332 -0.44668 -0.86664 -0.62 -1.24 s-0.30664 -0.75332 -0.39996 -1.14 s-0.16 -0.78668 -0.2 -1.2 s-0.06 -0.88664 -0.06 -1.42 c1.28 -0.42668 2.5533 -0.74668 3.82 -0.96 s2.4067 -0.32 3.42 -0.32 c1.3867 0 2.64 0.16668 3.76 0.5 s2.0733 0.84664 2.86 1.54 s1.3934 1.58 1.82 2.66 s0.64 2.3667 0.64 3.86 l0 11.72 c-1.0133 0.29332 -2.24 0.58664 -3.68 0.87996 s-2.96 0.44 -4.56 0.44 c-1.3867 0 -2.66 -0.12668 -3.82 -0.38 s-2.1533 -0.66 -2.98 -1.22 s-1.4734 -1.3 -1.94 -2.22 s-0.7 -2.0467 -0.7 -3.38 z M44.36 35.480000000000004 c0.24 0 0.58672 -0.026719 1.04 -0.08004 s0.78664 -0.10664 0.99996 -0.15996 l0 -4.4 l-2.28 0 c-0.93332 0 -1.72 0.2 -2.36 0.6 s-0.96 0.96 -0.96 1.68 c0 0.53332 0.12 0.95332 0.36 1.26 s0.54 0.54 0.9 0.7 s0.74668 0.26668 1.16 0.32 s0.79332 0.08 1.14 0.08 z M56.88 19.4 c1.2533 -0.16 2.5532 -0.29332 3.8999 -0.4 s2.62 -0.16 3.82 -0.16 c3.2267 0 5.6468 0.60668 7.26 1.82 s2.42 2.9133 2.42 5.1 c0 0.82668 -0.09332 1.5467 -0.28 2.16 s-0.41336 1.14 -0.68004 1.58 s-0.54668 0.79332 -0.84 1.06 s-0.53332 0.48 -0.72 0.64 l4.56 8.72 c-0.53332 0.10668 -1.1266 0.18668 -1.78 0.24 s-1.2866 0.08 -1.9 0.08 c-0.74668 0 -1.4667 -0.02668 -2.16 -0.08 s-1.2666 -0.13332 -1.72 -0.24 l-4.44 -9.44 l0.56 -0.32 c0.93332 -0.53332 1.5733 -1.1 1.92 -1.7 s0.52 -1.2467 0.52 -1.94 s-0.20668 -1.26 -0.62 -1.7 s-1.0733 -0.66 -1.98 -0.66 c-0.50668 0 -0.89336 0.02668 -1.16 0.08 l0 15.72 c-0.69332 0.13332 -1.32 0.22 -1.88 0.26 s-1.0533 0.06 -1.48 0.06 c-0.45332 0 -0.94664 -0.02 -1.48 -0.06 s-1.1466 -0.12668 -1.84 -0.26 l0 -20.56 z M77.03999999999999 29.68 c0 -1.6 0.22676 -3.0667 0.68008 -4.4 s1.12 -2.4733 2 -3.42 s1.96 -1.6867 3.24 -2.22 s2.7467 -0.8 4.4 -0.8 c0.56 0 1.0933 0.01332 1.6 0.04 s1.0067 0.08 1.5 0.16 s1 0.2 1.52 0.36 s1.1 0.36 1.74 0.6 c0.05332 0.90668 -0.02668 1.8067 -0.24 2.7 s-0.54664 1.7666 -0.99996 2.62 c-0.45332 -0.16 -0.86 -0.28668 -1.22 -0.38 s-0.7 -0.16664 -1.02 -0.21996 s-0.63332 -0.08664 -0.94 -0.09996 s-0.63336 -0.02 -0.98004 -0.02 c-1.28 0 -2.34 0.38 -3.18 1.14 s-1.26 2.0733 -1.26 3.94 c0 0.98668 0.12668 1.8067 0.38 2.46 s0.58664 1.1666 0.99996 1.54 s0.89332 0.64 1.44 0.8 s1.1267 0.24 1.74 0.24 c0.77332 0 1.4466 -0.06668 2.02 -0.2 s1.2466 -0.34664 2.02 -0.63996 c0.45332 0.72 0.81332 1.5267 1.08 2.42 s0.4 1.9133 0.4 3.06 c-1.2267 0.48 -2.3467 0.78668 -3.36 0.92 s-2.0266 0.2 -3.04 0.2 c-1.7067 0 -3.2134 -0.25332 -4.52 -0.76 s-2.4067 -1.2334 -3.3 -2.18 s-1.5666 -2.08 -2.02 -3.4 s-0.68 -2.8067 -0.68 -4.46 z M95.28 29.759999999999998 c0 -1.6267 0.22 -3.1134 0.66 -4.46 s1.0933 -2.5 1.96 -3.46 s1.94 -1.7 3.22 -2.22 s2.76 -0.78 4.44 -0.78 c1.7067 0 3.2 0.26 4.48 0.78 s2.3533 1.26 3.22 2.22 s1.52 2.1133 1.96 3.46 s0.66 2.8334 0.66 4.46 c0 1.6 -0.22 3.06 -0.66 4.38 s-1.0933 2.4533 -1.96 3.4 s-1.94 1.6734 -3.22 2.18 s-2.7733 0.76 -4.48 0.76 c-1.68 0 -3.16 -0.25332 -4.44 -0.76 s-2.3533 -1.2334 -3.22 -2.18 s-1.52 -2.08 -1.96 -3.4 s-0.66 -2.78 -0.66 -4.38 z M109.04 29.759999999999998 c0 -1.7067 -0.28668 -3.0134 -0.86 -3.92 s-1.4466 -1.36 -2.62 -1.36 s-2.04 0.45332 -2.6 1.36 s-0.84 2.2134 -0.84 3.92 c0 1.68 0.28 2.9733 0.84 3.88 s1.4267 1.36 2.6 1.36 s2.0466 -0.45332 2.62 -1.36 s0.86 -2.2 0.86 -3.88 z"></path></g></svg>